name rise49.5252peak65.1548fall88.8305.mot
datacolumns 19
datarows 21
range 7.82329800000000 7.85681400000000
endheader
time	ground_force1_vx	ground_force1_vy	ground_force1_vz	ground_force1_px	ground_force1_py	ground_force1_pz	ground_force2_vx	ground_force2_vy	ground_force2_vz	ground_force2_px	ground_force2_py	ground_force2_pz	ground_torque1_x	ground_torque1_y	ground_torque1_z	ground_torque2_x	ground_torque2_y	ground_torque2_z	
7.82329800000000	53.49706700000000	753.48560399999997	51.81217100000000	0.35972200000000	0.00000000000000	0.10379900000000	0.00000000000000	0.00000000000000	0.00000000000000	0.00000000000000	0.00000000000000	0.00000000000000	0.00000000000000	25.02376700000000	0.00000000000000	0.00000000000000	0.00000000000000	0.00000000000000	
7.82496100000000	52.99034900000000	758.10360900000001	52.01606400000000	0.35885100000000	0.00000000000000	0.10377200000000	0.00000000000000	0.00000000000000	0.00000000000000	0.00000000000000	0.00000000000000	0.00000000000000	0.00000000000000	25.14172600000000	0.00000000000000	0.00000000000000	0.00000000000000	0.00000000000000	
7.82664700000000	52.48035400000000	762.56574599999999	52.21961600000000	0.35802800000000	0.00000000000000	0.10374400000000	0.00000000000000	0.00000000000000	0.00000000000000	0.00000000000000	0.00000000000000	0.00000000000000	0.00000000000000	25.26248300000000	0.00000000000000	0.00000000000000	0.00000000000000	0.00000000000000	
7.82829500000000	51.96740300000000	766.86607600000002	52.42257000000000	0.35725300000000	0.00000000000000	0.10371600000000	0.00000000000000	0.00000000000000	0.00000000000000	0.00000000000000	0.00000000000000	0.00000000000000	0.00000000000000	25.38583700000000	0.00000000000000	0.00000000000000	0.00000000000000	0.00000000000000	
7.82996300000000	51.45175200000000	770.99892399999999	52.62459300000000	0.35652300000000	0.00000000000000	0.10368800000000	0.00000000000000	0.00000000000000	0.00000000000000	0.00000000000000	0.00000000000000	0.00000000000000	0.00000000000000	25.51153400000000	0.00000000000000	0.00000000000000	0.00000000000000	0.00000000000000	
7.83165100000000	50.93359800000000	774.95891300000005	52.82527900000000	0.35583700000000	0.00000000000000	0.10366000000000	0.00000000000000	0.00000000000000	0.00000000000000	0.00000000000000	0.00000000000000	0.00000000000000	0.00000000000000	25.63926500000000	0.00000000000000	0.00000000000000	0.00000000000000	0.00000000000000	
7.83330000000000	50.41307900000000	778.74098700000002	53.02415400000000	0.35519400000000	0.00000000000000	0.10363100000000	0.00000000000000	0.00000000000000	0.00000000000000	0.00000000000000	0.00000000000000	0.00000000000000	0.00000000000000	25.76867400000000	0.00000000000000	0.00000000000000	0.00000000000000	0.00000000000000	
7.83496600000000	49.89028000000000	782.34043199999996	53.22068300000000	0.35459000000000	0.00000000000000	0.10360200000000	0.00000000000000	0.00000000000000	0.00000000000000	0.00000000000000	0.00000000000000	0.00000000000000	0.00000000000000	25.89935700000000	0.00000000000000	0.00000000000000	0.00000000000000	0.00000000000000	
7.83663200000000	49.36523400000000	785.75290299999995	53.41427400000000	0.35402500000000	0.00000000000000	0.10357300000000	0.00000000000000	0.00000000000000	0.00000000000000	0.00000000000000	0.00000000000000	0.00000000000000	0.00000000000000	26.03086900000000	0.00000000000000	0.00000000000000	0.00000000000000	0.00000000000000	
7.83829500000000	48.83793200000000	788.97443899999996	53.60428800000000	0.35349600000000	0.00000000000000	0.10354300000000	0.00000000000000	0.00000000000000	0.00000000000000	0.00000000000000	0.00000000000000	0.00000000000000	0.00000000000000	26.16272700000000	0.00000000000000	0.00000000000000	0.00000000000000	0.00000000000000	
7.83996200000000	48.30832100000000	792.00148600000000	53.79004100000000	0.35300100000000	0.00000000000000	0.10351400000000	0.00000000000000	0.00000000000000	0.00000000000000	0.00000000000000	0.00000000000000	0.00000000000000	0.00000000000000	26.29441500000000	0.00000000000000	0.00000000000000	0.00000000000000	0.00000000000000	
7.84165100000000	47.77631200000000	794.83091200000001	53.97081500000000	0.35253600000000	0.00000000000000	0.10348400000000	0.00000000000000	0.00000000000000	0.00000000000000	0.00000000000000	0.00000000000000	0.00000000000000	0.00000000000000	26.42538800000000	0.00000000000000	0.00000000000000	0.00000000000000	0.00000000000000	
7.84330100000000	47.24178700000000	797.46002199999998	54.14586500000000	0.35210100000000	0.00000000000000	0.10345400000000	0.00000000000000	0.00000000000000	0.00000000000000	0.00000000000000	0.00000000000000	0.00000000000000	0.00000000000000	26.55507300000000	0.00000000000000	0.00000000000000	0.00000000000000	0.00000000000000	
7.84496500000000	46.70459700000000	799.88656800000001	54.31442100000000	0.35169200000000	0.00000000000000	0.10342500000000	0.00000000000000	0.00000000000000	0.00000000000000	0.00000000000000	0.00000000000000	0.00000000000000	0.00000000000000	26.68288100000000	0.00000000000000	0.00000000000000	0.00000000000000	0.00000000000000	
7.84662900000000	46.16457500000000	802.10876599999995	54.47570200000000	0.35130700000000	0.00000000000000	0.10339500000000	0.00000000000000	0.00000000000000	0.00000000000000	0.00000000000000	0.00000000000000	0.00000000000000	0.00000000000000	26.80820300000000	0.00000000000000	0.00000000000000	0.00000000000000	0.00000000000000	
7.84830200000000	45.62153400000000	804.12529600000005	54.62891800000000	0.35094200000000	0.00000000000000	0.10336500000000	0.00000000000000	0.00000000000000	0.00000000000000	0.00000000000000	0.00000000000000	0.00000000000000	0.00000000000000	26.93042000000000	0.00000000000000	0.00000000000000	0.00000000000000	0.00000000000000	
7.84996800000000	45.07527700000000	805.93531399999995	54.77327900000000	0.35059500000000	0.00000000000000	0.10333600000000	0.00000000000000	0.00000000000000	0.00000000000000	0.00000000000000	0.00000000000000	0.00000000000000	0.00000000000000	27.04890700000000	0.00000000000000	0.00000000000000	0.00000000000000	0.00000000000000	
7.85165300000000	44.52559900000000	807.53845400000000	54.90800500000000	0.35026400000000	0.00000000000000	0.10330700000000	0.00000000000000	0.00000000000000	0.00000000000000	0.00000000000000	0.00000000000000	0.00000000000000	0.00000000000000	27.16303400000000	0.00000000000000	0.00000000000000	0.00000000000000	0.00000000000000	
7.85329900000000	43.97229300000000	808.93483200000003	55.03232600000000	0.34994500000000	0.00000000000000	0.10327800000000	0.00000000000000	0.00000000000000	0.00000000000000	0.00000000000000	0.00000000000000	0.00000000000000	0.00000000000000	27.27217600000000	0.00000000000000	0.00000000000000	0.00000000000000	0.00000000000000	
7.85496600000000	43.41515200000000	810.12504100000001	55.14549500000000	0.34963600000000	0.00000000000000	0.10325000000000	0.00000000000000	0.00000000000000	0.00000000000000	0.00000000000000	0.00000000000000	0.00000000000000	0.00000000000000	27.37571300000000	0.00000000000000	0.00000000000000	0.00000000000000	0.00000000000000	
7.85681400000000	42.85397800000000	811.11015299999997	55.24679100000000	0.34933200000000	0.00000000000000	0.10322200000000	0.00000000000000	0.00000000000000	0.00000000000000	0.00000000000000	0.00000000000000	0.00000000000000	0.00000000000000	27.47303500000000	0.00000000000000	0.00000000000000	0.00000000000000	0.00000000000000	
